Coordinates
version=1
nRows=29
nColumns=22
inDegrees=yes

Units are S.I. units (second, meters, Newtons, ...)
If the header above contains a line with 'inDegrees', this indicates whether rotational values are in degrees (yes) or radians (no).

endheader
time	pelvis_tilt	pelvis_list	pelvis_rotation	pelvis_tx	pelvis_ty	pelvis_tz	hip_flexion_r	hip_adduction_r	hip_rotation_r	knee_angle_r	ankle_angle_r	subtalar_angle_r	hip_flexion_l	hip_adduction_l	hip_rotation_l	knee_angle_l	ankle_angle_l	subtalar_angle_l	lumbar_extension	lumbar_bending	lumbar_rotation
      0.01000000	      0.84171979	      1.01617358	    -29.32060799	     -0.96576096	      0.90682524	     -0.40061400	     -3.10672554	     -2.29254317	     -5.95622064	     -8.66578956	     18.28574002	     -0.31697693	     -0.93865047	     -0.48313611	    -12.42129833	    -12.34791091	     14.19072377	      1.32021252	     -5.34401762	     -2.44437451	      4.01989631
      0.02000000	      0.83620377	      1.01527527	    -29.33557047	     -0.96571350	      0.90681923	     -0.40060352	     -3.10520975	     -2.29242553	     -5.96006690	     -8.66046403	     18.28662128	     -0.31933425	     -0.93708011	     -0.48395148	    -12.42059566	    -12.35013593	     14.18821107	      1.32036789	     -5.35215520	     -2.44873951	      4.01700384
      0.03000000	      0.82955458	      1.01494207	    -29.35248197	     -0.96565472	      0.90680982	     -0.40060003	     -3.10297791	     -2.29350039	     -5.96538379	     -8.65420558	     18.28710944	     -0.32149765	     -0.93402393	     -0.48362053	    -12.42067148	    -12.35414771	     14.18591317	      1.32055330	     -5.35998353	     -2.45160899	      4.01450925
      0.04000000	      0.82154414	      1.01526959	    -29.37020423	     -0.96558714	      0.90679876	     -0.40060360	     -3.09981418	     -2.29533973	     -5.97207267	     -8.64721776	     18.28725799	     -0.32345951	     -0.92961927	     -0.48239986	    -12.42206406	    -12.35880828	     14.18388391	      1.32073910	     -5.36702420	     -2.45310794	      4.01297192
      0.05000000	      0.81208460	      1.01620575	    -29.38838529	     -0.96551292	      0.90678360	     -0.40061282	     -3.09537139	     -2.29761983	     -5.98009969	     -8.63954703	     18.28711324	     -0.32519535	     -0.92414634	     -0.48048366	    -12.42510971	    -12.36314658	     14.18217446	      1.32091346	     -5.37261748	     -2.45297687	      4.01282167
      0.06000000	      0.75701623	      1.03914653	    -29.41696584	     -0.96545665	      0.90668996	     -0.40061063	     -3.01893042	     -2.29819578	     -5.98371101	     -8.65997858	     18.28002467	     -0.34877108	     -0.83898122	     -0.49268623	    -12.51039749	    -12.41701606	     14.17294013	      1.32820661	     -5.31453037	     -2.45093993	      4.03925798
      0.07000000	      0.74627650	      1.03920613	    -29.43138510	     -0.96537585	      0.90667443	     -0.40062961	     -3.01414737	     -2.29890267	     -5.98851457	     -8.65293061	     18.28137661	     -0.34900823	     -0.83621072	     -0.49054663	    -12.50839003	    -12.41502617	     14.17445115	      1.32869983	     -5.32106784	     -2.44842561	      4.03947381
      0.08000000	      0.71552548	      1.04193921	    -29.44850507	     -0.96526533	      0.90662982	     -0.40062474	     -2.99275369	     -2.29095956	     -6.00095828	     -8.64256083	     18.28404594	     -0.34798700	     -0.82569728	     -0.49484979	    -12.51247428	    -12.39401404	     14.18627273	      1.33174137	     -5.29547088	     -2.43757555	      4.06405672
      0.09000000	      0.70522393	      1.04230858	    -29.45784949	     -0.96518156	      0.90661507	     -0.40064797	     -2.98735636	     -2.29205700	     -6.00340960	     -8.63926402	     18.28372514	     -0.34773945	     -0.82249479	     -0.49297205	    -12.51257093	    -12.39281970	     14.18708131	      1.33203937	     -5.30255258	     -2.43553566	      4.06384697
      0.10000000	      0.65054536	      1.05540471	    -29.47576883	     -0.96511655	      0.90653602	     -0.40065920	     -2.91371233	     -2.28228487	     -5.99164886	     -8.66883311	     18.26992138	     -0.33218546	     -0.76697936	     -0.50486121	    -12.52830406	    -12.39956203	     14.20621712	      1.33752488	     -5.25312915	     -2.42126025	      4.09443465
      0.11000000	      0.64129885	      1.05604879	    -29.47652308	     -0.96503183	      0.90652352	     -0.40067901	     -2.91088090	     -2.28182259	     -5.99442366	     -8.66498889	     18.27085418	     -0.33192273	     -0.76448333	     -0.50364553	    -12.52983947	    -12.39621487	     14.20651623	      1.33750345	     -5.26065880	     -2.42219601	      4.09520839
      0.12000000	      0.63162128	      1.05707654	    -29.47309926	     -0.96494175	      0.90651290	     -0.40070033	     -2.90790421	     -2.28144271	     -5.99803599	     -8.66196681	     18.27142346	     -0.33158542	     -0.76204769	     -0.50303009	    -12.53151743	    -12.39122635	     14.20722077	      1.33737828	     -5.26659574	     -2.42215324	      4.09890595
      0.13000000	      0.61174264	      1.05856077	    -29.46664845	     -0.96482699	      0.90648787	     -0.40070303	     -2.89762510	     -2.27572840	     -6.02495646	     -8.65823062	     18.27110829	     -0.32902590	     -0.75624511	     -0.50715649	    -12.52576610	    -12.37699758	     14.21301346	      1.33605313	     -5.25287497	     -2.41798063	      4.12162365
      0.14000000	      0.60411142	      1.06015297	    -29.45714494	     -0.96473779	      0.90647957	     -0.40072197	     -2.89527265	     -2.27557190	     -6.02531964	     -8.65901240	     18.27081919	     -0.32852748	     -0.75391395	     -0.50610885	    -12.52627093	    -12.37336086	     14.21393117	      1.33584666	     -5.25941152	     -2.41883133	      4.12442531
      0.15000000	      0.59639942	      1.06207083	    -29.44508253	     -0.96464648	      0.90647053	     -0.40073668	     -2.89331279	     -2.27534244	     -6.02725031	     -8.66027570	     18.27047134	     -0.32802486	     -0.75159567	     -0.50571012	    -12.52555232	    -12.36905007	     14.21526545	      1.33560499	     -5.26448391	     -2.42023168	      4.12938170
      0.16000000	      0.58865189	      1.06454123	    -29.43193562	     -0.96455454	      0.90646090	     -0.40074695	     -2.89139243	     -2.27517560	     -6.03105273	     -8.66147833	     18.27025612	     -0.32753265	     -0.74921890	     -0.50509880	    -12.52334591	    -12.36459801	     14.21699445	      1.33537774	     -5.26877606	     -2.42186538	      4.13533472
      0.17000000	      0.57323816	      1.07417387	    -29.40563094	     -0.96444376	      0.90643200	     -0.40075228	     -2.87912618	     -2.27701843	     -6.08320632	     -8.66586549	     18.27155206	     -0.32389428	     -0.73735496	     -0.50078495	    -12.47833131	    -12.35817250	     14.23062003	      1.33375190	     -5.25553175	     -2.43131429	      4.15228208
      0.18000000	      0.56655791	      1.07789296	    -29.39339859	     -0.96435899	      0.90641836	     -0.40077050	     -2.87694681	     -2.27928832	     -6.08307412	     -8.66675805	     18.27247264	     -0.32317003	     -0.73403719	     -0.49829952	    -12.47917644	    -12.35385592	     14.23119013	      1.33335495	     -5.26410997	     -2.42996717	      4.14999967
      0.19000000	      0.56042446	      1.08212330	    -29.37843541	     -0.96427606	      0.90640290	     -0.40077005	     -2.87581438	     -2.28017042	     -6.08460148	     -8.66807521	     18.27409311	     -0.32238232	     -0.73108499	     -0.49729187	    -12.47846861	    -12.35052721	     14.23224385	      1.33285577	     -5.27111990	     -2.43480183	      4.14722779
      0.20000000	      0.56019765	      1.10917213	    -29.33104516	     -0.96417425	      0.90636872	     -0.40082192	     -2.87335115	     -2.30686778	     -6.14822063	     -8.66670009	     18.30104516	     -0.31437744	     -0.70773032	     -0.47064061	    -12.42296871	    -12.36555276	     14.24280937	      1.32548119	     -5.27408162	     -2.46323426	      4.08659299
      0.21000000	      0.55350446	      1.11130487	    -29.31746523	     -0.96409561	      0.90634988	     -0.40080371	     -2.87314335	     -2.30427186	     -6.14915567	     -8.66836394	     18.30212638	     -0.31374469	     -0.70650300	     -0.47289496	    -12.42314178	    -12.36083304	     14.24266159	      1.32464276	     -5.27969431	     -2.46923273	      4.08833574
      0.22000000	      0.54731365	      1.11478146	    -29.30381841	     -0.96402599	      0.90633006	     -0.40078749	     -2.87282588	     -2.30306568	     -6.15154561	     -8.66792607	     18.30390221	     -0.31319018	     -0.70402114	     -0.47371178	    -12.42219483	    -12.35688740	     14.24303826	      1.32383822	     -5.28700819	     -2.47609668	      4.08853310
      0.23000000	      0.54942652	      1.13556449	    -29.25755585	     -0.96391748	      0.90630190	     -0.40079685	     -2.88794330	     -2.32104604	     -6.20648912	     -8.64848754	     18.32764378	     -0.30928701	     -0.69027312	     -0.45398035	    -12.37105253	    -12.36897878	     14.24756923	      1.31576143	     -5.28642371	     -2.50856168	      4.05494967
      0.24000000	      0.54279134	      1.13803607	    -29.24439740	     -0.96386205	      0.90628326	     -0.40079083	     -2.88569591	     -2.31938714	     -6.20671513	     -8.64857918	     18.32811980	     -0.30894360	     -0.68820061	     -0.45509917	    -12.37182077	    -12.36229054	     14.24758887	      1.31508478	     -5.29574801	     -2.51211401	      4.05537403
      0.25000000	      0.53756961	      1.14060669	    -29.22673557	     -0.96379618	      0.90626702	     -0.40076840	     -2.88815179	     -2.31688395	     -6.20776570	     -8.64930733	     18.32906001	     -0.30860162	     -0.68682181	     -0.45689196	    -12.37001170	    -12.35730941	     14.24781662	      1.31432779	     -5.29933125	     -2.52079110	      4.05681663
      0.26000000	      0.53608431	      1.15636623	    -29.17058064	     -0.96368666	      0.90624799	     -0.40079402	     -2.90812804	     -2.32712134	     -6.26927346	     -8.62048442	     18.33910438	     -0.30651835	     -0.68263999	     -0.43910052	    -12.28356170	    -12.34546889	     14.24631940	      1.30129621	     -5.29600245	     -2.54277057	      4.01482741
      0.27000000	      0.53150477	      1.15845304	    -29.15278498	     -0.96362860	      0.90623516	     -0.40077787	     -2.91011531	     -2.32455113	     -6.26810443	     -8.62104685	     18.33925864	     -0.30622915	     -0.68149112	     -0.44096223	    -12.28464368	    -12.34170380	     14.24649624	      1.30068817	     -5.29957949	     -2.54995028	      4.02126928
      0.28000000	      0.52697928	      1.16135517	    -29.13309275	     -0.96357297	      0.90622261	     -0.40075748	     -2.91397865	     -2.32216567	     -6.26807667	     -8.61876429	     18.33970348	     -0.30600912	     -0.67926880	     -0.44303289	    -12.28329002	    -12.33807306	     14.24724244	      1.30007650	     -5.30165404	     -2.55958409	      4.03024010
      0.29000000	      0.52107312	      1.17234340	    -29.10788353	     -0.96350045	      0.90620255	     -0.40073222	     -2.93266496	     -2.32455642	     -6.28748229	     -8.57952802	     18.34248123	     -0.30650982	     -0.66930049	     -0.43662195	    -12.24803324	    -12.34069712	     14.25305499	      1.29701173	     -5.29281831	     -2.58062052	      4.06115523
